<?xml version="1.0" encoding="utf-8"?>
<!DOCTYPE svg PUBLIC "-//W3C//DTD SVG 1.0//EN" "http://www.w3.org/TR/2001/REC-SVG-20010904/DTD/svg10.dtd">
<svg version="1.0" xmlns="http://www.w3.org/2000/svg" width="632px" height="344px" viewBox="0 0 632 344" preserveAspectRatio="xMidYMid meet">
 <g fill="#000000">
  <path d="M219.15 310.90 c0.30 -2.55 3.10 -12.80 5.25 -19.20 0.80 -2.55 1.65 -5.35 1.85 -6.25 0.30 -1.40 1.25 -4.90 2.55 -9.05 0.25 -0.85 -0.40 -0.90 -8.50 -0.90 l-8.80 0 0 -2.25 c0 -1.25 0.80 -5 1.75 -8.30 0.95 -3.35 1.75 -6.40 1.75 -6.90 0 -0.45 0.80 -3.95 1.75 -7.75 0.95 -3.85 1.70 -7 1.65 -7.10 -0.10 -0.05 -2.95 0.30 -6.40 0.80 -17.30 2.55 -20.60 2.95 -24.60 3.30 l-4.40 0.35 0 -2.30 c0 -2 0.80 -3.85 5.45 -12.70 3 -5.70 5.40 -10.40 5.35 -10.40 -0.10 -0.05 -29.20 0.65 -40.60 0.95 -6.35 0.20 -11.95 0.20 -12.40 0 -0.50 -0.20 -0.80 -0.90 -0.80 -2 0 -1.45 0.25 -1.80 2.10 -2.75 1.20 -0.60 3.40 -1.95 4.90 -2.95 2.75 -1.85 12 -7.85 21.60 -14.05 11.25 -7.25 13.90 -9.05 13.90 -9.45 0 -0.20 -1.65 -0.55 -3.60 -0.75 -10.30 -0.95 -18.05 -1.80 -18.45 -2.05 -0.25 -0.15 -0.45 -1.05 -0.45 -2 0 -1.30 0.20 -1.70 0.90 -1.70 0.45 0 3.95 -1.35 7.80 -3 3.80 -1.65 7.15 -3 7.40 -3 0.25 0 2.15 -0.80 4.25 -1.80 2.10 -0.95 5.75 -2.50 8.10 -3.40 5.35 -2.10 15.15 -6.20 19.80 -8.30 1.95 -0.90 4.95 -2.10 6.75 -2.75 1.80 -0.65 7.10 -2.75 11.75 -4.75 4.70 -1.95 11.20 -4.70 14.50 -6.10 3.30 -1.40 8.10 -3.35 10.65 -4.30 2.50 -1 4.60 -1.90 4.60 -2.05 -0.05 -0.30 -2.45 -1.45 -18.50 -8.80 -4 -1.85 -9.25 -4.30 -11.75 -5.50 -2.45 -1.20 -7.30 -3.45 -10.75 -5 -6.75 -3.05 -15.10 -6.90 -20.85 -9.55 -3.55 -1.60 -3.65 -1.70 -3.65 -3.50 l0 -1.80 2.15 0.25 c1.15 0.10 4.45 0.80 7.35 1.50 2.90 0.75 7.95 1.90 11.25 2.60 3.30 0.75 7.35 1.75 9 2.25 2.90 0.90 8.35 2.10 12.50 2.75 1.10 0.15 4.80 1.05 8.25 2 3.45 0.95 9.20 2.30 12.75 3 3.60 0.75 8.85 2 11.75 2.80 2.90 0.80 8.05 2.05 11.50 2.75 3.45 0.70 8.15 1.80 10.50 2.40 5.20 1.45 10.20 2.60 14.40 3.30 1.75 0.30 3.50 0.70 3.95 0.85 1.55 0.60 -0.05 -1.20 -4.55 -5.15 -2.45 -2.20 -7.10 -6.30 -10.35 -9.20 -3.25 -2.90 -8.65 -7.70 -12.05 -10.70 -11.95 -10.60 -12 -10.60 -11.80 -12.45 0.15 -1.45 0.30 -1.60 2.05 -1.75 1.20 -0.10 2.45 0.20 3.50 0.80 2.15 1.30 8.40 4.45 21.60 10.85 6.05 2.95 21.25 10.45 33.75 16.60 12.50 6.20 24.65 12.15 27 13.25 2.35 1.10 6.30 3 8.75 4.20 2.50 1.15 8 3.75 12.25 5.75 4.25 1.95 9.55 4.45 11.75 5.45 2.20 1.05 9.85 4.65 17 8 7.15 3.35 15.30 7.20 18.15 8.55 5.15 2.55 5.20 2.55 7.75 1.95 2.20 -0.55 8.20 -2.65 12.75 -4.55 0.65 -0.25 2 -0.45 3.05 -0.45 1.80 0 2 0.15 2.70 1.95 0.85 2 7.25 15.25 16.65 34.30 l5.45 11 -0.05 5.75 c-0.05 6 -2 24.70 -2.70 26 -0.45 0.80 -7.80 2.80 -16.75 4.55 -5 0.95 -6 1 -11 0.50 -3 -0.35 -9.30 -0.90 -14 -1.30 -4.65 -0.40 -14.10 -1.40 -21 -2.20 -6.85 -0.80 -15.55 -1.70 -19.25 -2.05 -7.50 -0.65 -8.05 -0.55 -19.50 3.15 -4.70 1.55 -9.70 3.10 -31.50 9.90 -3.45 1.05 -8.40 2.55 -11 3.25 -2.60 0.75 -5.45 1.70 -6.35 2.15 -1.30 0.65 -9.85 8.25 -28.30 25.20 -1.15 1.10 -4.85 4.45 -8.20 7.45 -3.35 3.05 -6.20 5.85 -6.35 6.25 -0.20 0.50 -0.95 0.65 -2.40 0.55 l-2.15 -0.15 -0.10 -2.25 c-0.05 -1.25 -0.10 -7.15 -0.10 -13.15 l-0.05 -10.95 -3.10 2.20 c-1.75 1.25 -5.05 3.55 -7.40 5.15 -2.35 1.60 -5.35 3.75 -6.75 4.70 -1.35 0.95 -5.55 3.85 -9.25 6.45 -3.70 2.60 -7.40 5.15 -8.25 5.75 -11.60 8.25 -13.40 9.35 -15.35 9.35 l-2 0 0.25 -2.10z m14.60 -14.90 c0.55 -0.50 2.25 -1.70 3.75 -2.70 1.50 -1 4.65 -3.15 7 -4.85 4.20 -3 10.75 -7.45 15.95 -10.90 l2.70 -1.80 -13.15 -0.15 c-10.20 -0.10 -13.25 0.05 -13.60 0.50 -0.20 0.35 -0.70 2.25 -1.15 4.15 -0.45 1.95 -1.80 6.60 -3 10.35 -1.25 3.80 -2.25 7.10 -2.25 7.45 0 0.60 1.90 -0.45 3.75 -2.05z m49.75 -8.75 c0.95 -0.75 4 -3.45 6.75 -6 2.75 -2.50 6.55 -6.05 8.50 -7.80 1.90 -1.75 4.80 -4.40 6.40 -5.90 1.60 -1.50 3.35 -3.05 3.85 -3.40 1 -0.70 0.95 -0.75 -0.60 -3.05 -1.45 -2.15 -5.40 -7.55 -8.25 -11.35 -0.65 -0.85 -2.35 -3.20 -3.85 -5.25 -1.50 -2.05 -3.15 -4.15 -3.65 -4.65 -0.95 -0.85 -1 -0.80 -1.80 1 -0.95 2.10 -4.50 11.40 -7.15 18.60 -0.95 2.60 -2.55 6.55 -3.60 8.75 l-1.85 4.05 -0.15 10 -0.15 10 1.90 -1.80 c1.05 -0.95 2.70 -2.40 3.65 -3.20z m-10.55 -20.50 c0.60 -1.25 1.05 -2.40 1.05 -2.65 0 -0.50 2.80 -7.80 3.80 -10.05 0.45 -0.90 1.45 -3.50 2.20 -5.75 0.75 -2.20 2.20 -5.90 3.20 -8.15 2.10 -4.75 2.20 -5.25 0.70 -4.95 -0.65 0.15 -4.65 0.60 -8.90 1.05 -11.25 1.15 -20.20 2.25 -20.50 2.60 -0.15 0.15 -4.95 4.85 -10.75 10.50 -5.75 5.65 -12.50 12.35 -14.90 14.95 l-4.45 4.70 23.75 0 23.75 0 1.05 -2.25z m-40.85 -16.80 c6.35 -6.30 9.25 -9.50 8.45 -9.30 -0.70 0.15 -3.85 0.55 -7 0.90 -3.20 0.30 -6.25 0.75 -6.85 0.95 -0.85 0.35 -1.25 1.50 -2.40 7.30 -0.75 3.85 -1.55 7.55 -1.80 8.35 -0.25 0.75 -0.35 1.35 -0.25 1.35 0.10 0 4.50 -4.30 9.85 -9.55z m95.40 6 c3.90 -1.05 15.65 -4.70 29 -9 4.25 -1.35 8.50 -2.60 9.40 -2.75 0.85 -0.20 1.60 -0.45 1.60 -0.65 -0.05 -0.15 -2.10 -1 -4.65 -1.90 -10 -3.45 -17.25 -6.10 -20.35 -7.40 -1.80 -0.75 -5.15 -2 -7.50 -2.75 l-4.25 -1.35 -7.25 0.65 c-16.85 1.45 -25.50 2.40 -25.50 2.75 0 0.20 2.75 4.05 6.05 8.55 3.35 4.45 7.10 9.55 8.40 11.30 1.25 1.75 2.80 3.80 3.45 4.60 l1.15 1.45 3.35 -1.25 c1.85 -0.65 5.05 -1.65 7.10 -2.25z m130.75 -11.45 c1.95 -0.35 3.75 -0.75 4.05 -0.85 0.35 -0.10 0.75 -2.05 0.90 -4.55 0.20 -2.40 0.50 -5.15 0.65 -6.10 l0.25 -1.75 -1.40 1.65 c-1.20 1.40 -1.75 1.65 -3.15 1.50 -1.60 -0.15 -1.75 -0.30 -2.55 -3.15 -0.50 -1.65 -1.50 -4.75 -2.25 -6.85 -1.25 -3.50 -1.55 -3.90 -2.70 -3.90 -0.95 0 -2.05 0.85 -4.30 3.40 -1.70 1.85 -3.70 4.20 -4.45 5.25 -1.20 1.55 -1.70 1.85 -3.35 1.85 -1.85 0 -1.95 -0.10 -2.45 -2.10 -1.70 -6.55 -3.60 -11.85 -4.30 -12.10 -2.20 -0.85 -3.05 -0.30 -7.50 4.95 -4.15 4.90 -4.55 5.25 -6.30 5.25 -2 0 -1.95 0.15 -4.85 -9.80 -0.55 -1.95 -1.35 -3.80 -1.70 -4.10 -0.35 -0.30 -2.75 -1.15 -5.35 -1.85 -2.60 -0.70 -7.25 -2.05 -10.25 -3 -3.05 -0.95 -5.75 -1.75 -6.05 -1.75 -0.30 0 -1 1 -1.55 2.25 l-1.05 2.30 1.55 0.80 c0.90 0.45 3.05 1.75 4.85 2.90 1.80 1.15 4.50 2.85 6 3.75 1.50 0.90 5.10 3.10 8 4.90 2.90 1.80 6.95 4.25 9 5.45 2.05 1.20 4.90 2.90 6.25 3.75 1.40 0.85 4.55 2.80 7 4.30 2.50 1.50 6.20 3.80 8.25 5.10 2.05 1.30 4.75 2.90 6 3.55 2.20 1.20 2.25 1.20 5.75 0.40 1.90 -0.45 5.10 -1.10 7 -1.45z m-28.30 0.80 c-0.20 -0.20 -5.50 -3.50 -13.20 -8.20 l-4.50 -2.75 -1.50 0.90 c-0.80 0.45 -3.60 2.35 -6.15 4.15 -4.60 3.30 -4.65 3.35 -3 3.50 0.90 0.05 5.25 0.50 9.65 0.90 6.75 0.70 10.40 1.05 17.95 1.60 0.55 0.05 0.85 0 0.75 -0.10z m-40.10 -5.20 c4.15 -2.70 14.10 -9.60 14.35 -10.05 0.30 -0.45 -1.15 -1.45 -9.45 -6.30 -2.75 -1.60 -6 -3.60 -7.15 -4.40 -1.20 -0.80 -2.40 -1.25 -2.60 -1.05 -0.25 0.25 -1.70 3.05 -3.25 6.20 -1.55 3.15 -3.35 6.80 -4 8.15 l-1.20 2.35 2.10 2.50 c2.05 2.40 3.55 3.15 7.10 3.65 0.85 0.10 1.60 0.20 1.75 0.25 0.15 0 1.20 -0.60 2.35 -1.30z m-182.85 -2.15 c4 -0.60 7.30 -1.05 7.30 -1.10 0.05 -0.05 -2.85 -2.75 -6.45 -5.95 -5.80 -5.15 -6.60 -5.75 -7.15 -5 -0.30 0.45 -1.85 3.35 -3.45 6.35 -1.55 3.05 -3.05 5.70 -3.30 6 -0.25 0.25 -0.45 0.60 -0.45 0.80 0 0.50 4.90 0.10 13.50 -1.10z m24.50 -3.40 c2.60 -0.30 7.75 -0.90 11.45 -1.30 l6.70 -0.70 14.05 -14.05 c7.75 -7.70 15.15 -15 16.50 -16.25 1.35 -1.25 2.40 -2.35 2.25 -2.45 -0.10 -0.10 -4 -0.45 -8.70 -0.75 -18.10 -1.20 -25.95 -1.90 -38.75 -3.30 -3.45 -0.40 -8.85 -0.85 -12 -1.05 l-5.75 -0.35 -5.75 10.95 c-3.15 6 -5.90 11.30 -6.10 11.75 -0.35 0.95 1.70 3.05 10.50 10.70 7.65 6.65 9.15 7.80 10.05 7.55 0.45 -0.15 2.95 -0.50 5.55 -0.75z m131.90 -3.10 c-1.45 -1.70 -3.75 -4.35 -5.15 -5.90 -1.35 -1.55 -2.85 -3.30 -3.25 -3.95 l-0.75 -1.10 -6.10 2.85 c-3.30 1.60 -5.95 3 -5.85 3.10 0.10 0.10 3.25 1.25 7.05 2.55 3.80 1.30 8.80 3.05 11.15 3.90 2.35 0.85 4.55 1.55 4.90 1.60 0.35 0 -0.55 -1.35 -2 -3.05z m-93.90 -1.65 c2.90 -0.40 8.10 -1 11.65 -1.35 l6.35 -0.65 0 -10.65 c0 -5.85 -0.15 -10.65 -0.35 -10.65 -0.25 0 -5.90 5.55 -12.65 12.30 -6.75 6.80 -11.80 12.20 -11.25 12.05 0.55 -0.20 3.35 -0.65 6.25 -1.05z m108.05 -27.40 c-3.20 -1.05 -8 -2.50 -10.65 -3.20 l-4.90 -1.20 -2.10 1.30 c-1.70 1.05 -8.35 5.35 -9.35 6.05 -0.10 0.05 2.35 2.80 5.50 6 3.15 3.25 7.85 8.45 10.40 11.60 l4.75 5.65 6.05 -12.15 6.10 -12.15 -5.80 -1.90z m-67.80 22.90 c5.80 -0.70 12.85 -1.50 15.75 -1.75 4.40 -0.40 9 -1.55 9 -2.25 0 -0.60 -2.20 -9 -2.95 -11.30 -1.25 -3.70 -1.80 -5.80 -3.35 -12 -0.70 -2.90 -2.05 -7.70 -3 -10.70 -0.95 -3 -1.70 -6 -1.70 -6.65 0 -0.60 -0.10 -1.15 -0.20 -1.15 -0.15 0 -4 2.65 -8.65 5.85 -4.60 3.20 -10.10 7 -12.15 8.40 -2.05 1.40 -4.80 3.30 -6.10 4.25 l-2.40 1.70 0 12.85 c0 7.10 0.15 13.25 0.35 13.70 0.25 0.70 0.75 0.80 2.60 0.60 1.25 -0.20 7.05 -0.85 12.80 -1.55z m36.20 -9.10 l2.65 -1.20 -3.15 -3.25 c-2 -2.10 -3.80 -3.45 -4.90 -3.75 -0.95 -0.25 -1.85 -0.35 -1.95 -0.25 -0.15 0.15 0.40 2.50 1.20 5.25 1.60 5.60 1.20 5.40 6.15 3.20z m-147.85 -1.35 c0.50 -0.60 0.90 -1.30 0.90 -1.60 0 -0.25 0.60 -1.60 1.35 -3 0.70 -1.35 2.35 -4.50 3.65 -7 1.25 -2.45 2.90 -5.55 3.65 -6.85 0.80 -1.25 1.20 -2.40 1 -2.55 -0.20 -0.10 -3.20 -0.40 -6.65 -0.55 l-6.30 -0.35 -4.45 2.95 c-2.50 1.60 -8.20 5.40 -12.75 8.35 -4.55 2.95 -10.60 6.95 -13.50 8.85 l-5.25 3.50 18.75 -0.35 c18.40 -0.35 18.75 -0.35 19.60 -1.40z m262.25 -3.95 c-1.20 -2.30 -2.65 -5.40 -3.30 -6.90 l-1.15 -2.70 -1.20 1.35 -1.20 1.40 2.25 4.40 c2.20 4.45 4.10 6.55 5.80 6.55 0.75 0 0.60 -0.60 -1.20 -4.10z m-12.15 -0.25 c-1.70 -3.05 -2.95 -4.45 -5.45 -6.10 -4.45 -2.90 -5.75 -4.20 -5.75 -5.90 0 -1.35 0.30 -1.80 1.80 -2.55 l1.75 -0.90 -4.35 -4 c-2.40 -2.15 -4.75 -4.30 -5.20 -4.70 -0.45 -0.40 -1.60 -1.45 -2.60 -2.35 l-1.85 -1.60 -8.40 0.30 c-9.15 0.30 -11.95 1 -11.85 2.95 0 0.55 1.35 3.10 3 5.70 1.70 2.60 4.35 7 5.95 9.75 1.60 2.75 3.10 5.20 3.30 5.45 0.20 0.25 2.25 0.70 4.55 1.05 2.30 0.40 6.40 1.15 9.15 1.80 2.75 0.60 7.70 1.60 11 2.20 3.30 0.60 6.05 1.15 6.10 1.20 0.10 0 -0.45 -1 -1.15 -2.30z m-41.80 -9.25 c-0.85 -1.45 -2.25 -3.75 -3.05 -5.15 -4.20 -7.25 -5.15 -8.50 -7.40 -9.60 l-2.25 -1.10 -4.75 1.75 c-2.60 0.95 -5.80 2.20 -7.20 2.75 -1.35 0.55 -3.90 1.55 -5.65 2.15 -3 1.10 -3.05 1.15 -1.85 1.70 0.70 0.35 3.55 1.15 6.40 1.90 2.80 0.70 7.80 2.15 11.10 3.20 3.30 1.05 7.90 2.40 10.25 3 2.30 0.60 4.55 1.30 5 1.55 0.40 0.20 0.80 0.45 0.85 0.45 0.05 0 -0.60 -1.20 -1.45 -2.60z m-60.90 -1.90 c0.95 -0.75 3.40 -2.35 5.40 -3.50 2 -1.20 3.80 -2.40 4.05 -2.70 0.30 -0.35 -0.75 -2 -2.80 -4.55 -1.80 -2.20 -3.40 -4.30 -3.65 -4.70 -0.35 -0.65 -0.50 -0.65 -1.10 0 -0.40 0.40 -3.45 2.80 -6.75 5.40 l-6 4.65 0.60 2.10 c1.50 4.75 1.45 4.75 4.35 4.90 3.30 0.20 3.70 0.05 5.90 -1.60z m103.05 -13 c-2.20 -4.45 -4.10 -8.25 -4.25 -8.35 -0.35 -0.35 -7.80 1.90 -7.80 2.35 0 0.50 5.35 5.50 10.65 9.90 2.35 2 4.45 3.85 4.60 4.15 0.20 0.30 0.45 0.40 0.55 0.30 0.15 -0.10 -1.55 -3.85 -3.75 -8.35z m-156.05 4.75 c1.80 -1.20 5.95 -4.15 9.25 -6.45 3.30 -2.35 8.25 -5.75 10.95 -7.60 l4.95 -3.40 -1.70 -0.70 c-2.55 -1.10 -13.05 -5.90 -18.80 -8.65 -2.80 -1.35 -5.25 -2.45 -5.40 -2.45 -0.40 0 -15.20 -6.85 -17.80 -8.25 -2.80 -1.50 -3.10 -1.55 -2.75 -0.35 0.15 0.45 0.70 4.45 1.25 8.85 0.55 4.40 1.45 10.60 2.05 13.75 0.55 3.15 1.40 8.05 1.85 10.90 0.75 4.40 1 5.15 1.90 5.40 0.90 0.20 7.50 0.95 10 1.15 0.55 0 2.45 -0.95 4.25 -2.20z m-23.35 -4.85 c-0.35 -2.85 -1.45 -9.55 -2.35 -14.90 -0.95 -5.35 -2 -11.60 -2.35 -13.85 l-0.60 -4.15 -2.80 2.40 c-2.65 2.20 -9.60 8.35 -22.30 19.60 -3 2.70 -7.60 6.65 -10.10 8.80 -2.55 2.10 -4.60 3.95 -4.50 4 0.35 0.35 35.80 3 41.85 3.10 l3.80 0.10 -0.65 -5.10z m97.10 1.60 c0.30 -0.25 2.55 -1.05 5 -1.90 3.80 -1.25 15.15 -5.90 15.65 -6.35 0.35 -0.30 -3.65 -4.35 -4.95 -5 -0.75 -0.40 -3.90 -1.60 -7.05 -2.70 -3.10 -1.05 -7.65 -2.75 -10.15 -3.70 -7.30 -2.80 -6.75 -2.90 -8.70 1.55 -0.95 2.10 -2 4.50 -2.35 5.30 -1 2.05 -0.95 2.20 1.70 5.25 1.30 1.55 3.50 4.20 4.80 5.85 2.40 3 2.50 3.05 4 2.55 0.85 -0.25 1.80 -0.65 2.05 -0.85z m-144.60 -8.15 c4.45 -3.90 9.45 -8.25 11.10 -9.65 3.85 -3.20 6.85 -5.85 10 -8.80 l2.50 -2.40 -4.50 1.80 c-2.45 0.95 -6.30 2.50 -8.50 3.45 -2.20 0.95 -5.35 2.25 -7 2.90 -1.65 0.70 -6.60 2.75 -11 4.60 -4.40 1.80 -9.70 4 -11.75 4.80 -2.05 0.80 -5.30 2.15 -7.25 3 -1.90 0.85 -5.65 2.35 -8.25 3.35 -5.75 2.20 -5.50 2.30 6 2.80 4.55 0.20 9.85 0.55 11.75 0.80 1.95 0.20 4.70 0.40 6.15 0.45 l2.60 0.05 8.15 -7.15z m115.25 2.65 c8.95 -6.95 8.70 -6.65 12.80 -17 1.95 -5.05 2.05 -5.40 1.60 -8.35 l-0.50 -3.15 -3.35 0 -3.35 0 -5.15 7.05 c-2.85 3.90 -6.20 8.45 -7.40 10.10 l-2.20 3.05 1.15 4.55 c1.15 4.80 1.80 6.75 2.25 6.75 0.15 0 2 -1.35 4.15 -3z m75.30 -6.45 c0.15 -0.25 -2.15 -1.50 -5.10 -2.80 -2.95 -1.30 -7.25 -3.35 -9.55 -4.55 -2.35 -1.20 -4.45 -2.20 -4.75 -2.20 -0.25 0 -2.20 -0.85 -4.25 -1.95 -2.10 -1.05 -5.50 -2.65 -7.55 -3.55 -2.05 -0.90 -7.70 -3.55 -12.50 -5.85 -12.15 -5.90 -11.15 -5.65 -10.75 -2.75 0.80 5.70 0.80 5.70 5.60 7.50 2.45 0.95 6.30 2.35 8.65 3.15 2.35 0.80 7.05 2.60 10.50 3.90 3.45 1.35 9.25 3.60 12.90 5.05 9.55 3.70 16.05 5.25 16.80 4.05z m-86.10 -10.70 c1.35 -1.70 3.95 -5.25 5.90 -7.85 l3.50 -4.75 -1.85 -0.65 c-1 -0.30 -3.30 -0.85 -5.10 -1.10 -1.80 -0.30 -3.65 -0.65 -4.10 -0.75 -0.45 -0.15 -1.25 0.45 -2.10 1.60 -2.35 3.25 -7.85 11.70 -7.85 12.05 0 0.30 8.25 4.45 9 4.55 0.15 0 1.30 -1.35 2.60 -3.10z m-13.90 -12.10 c1.80 -2.75 3.10 -5.15 2.85 -5.40 -0.25 -0.25 -1.30 -0.55 -2.40 -0.70 -1.75 -0.20 -2.60 0.10 -6.85 2.55 -2.65 1.55 -5.95 3.55 -7.30 4.45 l-2.45 1.65 5.35 2.35 5.35 2.30 1.10 -1.10 c0.60 -0.60 2.55 -3.35 4.35 -6.10z m-15.25 -7.25 c1.15 -0.65 1.90 -1.35 1.65 -1.55 -0.20 -0.15 -2.30 -0.85 -4.75 -1.45 -4 -1 -4.50 -1.05 -6 -0.35 -0.85 0.40 -3.80 1.40 -6.45 2.20 -2.70 0.75 -4.90 1.55 -4.90 1.70 0 0.20 1.30 0.80 2.90 1.40 1.55 0.60 4.05 1.75 5.55 2.50 l2.75 1.40 3.60 -2.30 c2 -1.25 4.55 -2.85 5.65 -3.55z m52.45 0.65 c-0.10 -0.50 -1.65 -1.50 -3.90 -2.45 -3.80 -1.65 -5.75 -1.95 -19.50 -3 -3.75 -0.25 -3.75 -0.25 -2.65 0.70 0.60 0.55 2.05 1.10 3.25 1.30 1.20 0.20 3.15 0.65 4.40 1 8.65 2.65 11 3.10 15.65 3.25 2.50 0.05 2.90 -0.05 2.75 -0.80z m-78.80 -5.65 c3.50 -1.05 5.85 -2.45 4.25 -2.50 -0.50 0 -3.15 -0.65 -5.95 -1.50 -2.75 -0.80 -6.10 -1.50 -7.40 -1.50 -3.35 0 -7 0.55 -7 1.05 0 0.25 0.30 0.45 0.65 0.45 0.30 0 2.95 1.15 5.85 2.50 2.90 1.40 5.50 2.50 5.80 2.50 0.35 0 2.05 -0.45 3.80 -1z m51.05 -8.50 c-4.85 -2.40 -9.45 -3.75 -11.80 -3.40 -0.95 0.15 -0.70 0.45 1.65 2.25 2.35 1.75 3.30 2.15 6.50 2.60 2.05 0.30 4.30 0.65 5 0.75 3.50 0.50 3.25 0.10 -1.35 -2.20z"/>
 </g>
 <g fill="#ffffff">
  <path d="M0 172 l0 -172 316 0 316 0 0 172 0 172 -316 0 -316 0 0 -172z m227.30 135.35 c3.25 -2.25 6.65 -4.60 7.45 -5.20 1.50 -1.05 12.45 -8.70 18.75 -13.10 13.15 -9.15 18.90 -13.05 19.10 -13.05 0.15 0 0.20 6.30 0.15 14 -0.05 7.75 0.10 14.15 0.30 14.25 0.20 0.15 1.90 -1.25 3.75 -3.05 1.90 -1.80 5.15 -4.80 7.20 -6.65 2.05 -1.80 4.55 -4.05 5.50 -4.95 9.25 -8.75 26.40 -24 27.65 -24.65 0.90 -0.45 3.75 -1.40 6.35 -2.15 2.60 -0.70 7.55 -2.20 11 -3.25 21.75 -6.80 26.80 -8.35 31.50 -9.90 8.15 -2.65 12.05 -3.65 14.50 -3.65 3.25 0 13 0.90 27.25 2.55 6.90 0.85 16.45 1.80 21.25 2.20 4.80 0.40 10.60 0.95 12.85 1.20 3.40 0.40 4.90 0.35 9.25 -0.50 8.50 -1.60 15.95 -3.65 16.40 -4.45 0.60 -1.10 2.60 -19.50 2.70 -24.50 l0.05 -4.25 -5.45 -11 c-9.40 -19.05 -15.80 -32.30 -16.65 -34.30 -0.40 -1.05 -0.90 -1.95 -1.10 -1.95 -0.30 0 -2.35 0.75 -8.15 2.95 -4.65 1.80 -9.95 3.10 -11.10 2.75 -0.55 -0.15 -3.30 -1.40 -6.05 -2.75 -2.75 -1.30 -10.85 -5.10 -18 -8.45 -7.15 -3.35 -14.80 -6.95 -17 -8 -2.20 -1 -7.50 -3.50 -11.75 -5.45 -4.25 -2 -9.75 -4.60 -12.25 -5.75 -2.45 -1.20 -6.40 -3.10 -8.75 -4.20 -2.35 -1.10 -14.50 -7.05 -27 -13.25 -12.50 -6.15 -27.70 -13.65 -33.75 -16.60 -13.20 -6.40 -19.45 -9.55 -21.60 -10.85 -0.90 -0.55 -1.85 -0.85 -2.15 -0.65 -0.50 0.30 1.40 2.20 11.40 11.05 3.40 3 7.80 6.90 9.75 8.65 2 1.75 6.30 5.60 9.60 8.50 3.30 2.90 6.55 5.85 7.25 6.55 0.70 0.70 2.70 2.50 4.45 4 1.75 1.50 2.95 2.80 2.65 2.90 -0.30 0.10 -2.80 -0.50 -5.60 -1.35 -2.80 -0.85 -6.45 -1.75 -8.15 -2.05 -4.15 -0.70 -9.20 -1.90 -14.35 -3.30 -2.35 -0.60 -7.05 -1.70 -10.50 -2.40 -3.45 -0.70 -8.60 -1.95 -11.50 -2.75 -2.90 -0.80 -8.15 -2.05 -11.75 -2.80 -3.55 -0.70 -9.30 -2.05 -12.75 -3 -3.45 -0.95 -7.15 -1.85 -8.25 -2 -3.60 -0.60 -11.10 -2.20 -12.40 -2.70 -1.75 -0.70 -8.95 -2.35 -16.10 -3.80 -3.30 -0.65 -7 -1.55 -8.20 -2 -3.60 -1.25 -3 -0.40 1 1.45 5.65 2.60 14.05 6.40 20.95 9.55 3.45 1.55 8.30 3.80 10.75 5 7.90 3.80 18.65 8.75 18.90 8.75 0.15 0 3 1.35 6.35 2.95 3.30 1.60 6.60 3.10 7.35 3.30 1.10 0.25 1.20 0.40 0.60 0.95 -0.40 0.35 -2.05 1.20 -3.70 1.80 -4.50 1.75 -20.70 8.50 -35.70 14.80 -2.85 1.20 -5.40 2.20 -5.65 2.20 -0.25 0 -3.90 1.50 -8.05 3.30 -12.85 5.55 -15.50 6.65 -18.85 7.90 -1.80 0.65 -5 2 -7.10 3 -2.15 1 -4.05 1.80 -4.30 1.80 -0.25 0 -3.60 1.35 -7.40 3 -3.85 1.65 -7.40 3 -7.95 3 -0.60 0 -0.80 0.15 -0.45 0.50 0.25 0.25 3.95 0.80 8.20 1.25 9.50 0.90 16.35 1.70 18 2.05 1.10 0.25 0.90 0.45 -1.75 1.90 -1.65 0.90 -4.15 2.40 -5.50 3.35 -1.40 0.95 -5.55 3.60 -9.15 5.95 -9.35 6 -19.85 12.80 -23.10 15 -1.50 1 -3.75 2.35 -4.95 3 -4.10 2.05 -5.80 2 34.70 1.05 9.90 -0.25 18.20 -0.35 18.40 -0.20 0.20 0.10 -0.05 0.95 -0.60 1.80 -2.15 3.55 -11.55 21.95 -11.55 22.60 0 1 1.20 0.85 26.40 -2.80 3.90 -0.55 7.75 -0.95 8.55 -0.85 l1.45 0.15 -0.95 3.50 c-0.55 1.95 -1.55 6.10 -2.25 9.25 -0.75 3.15 -2.05 8.50 -3 11.85 -0.95 3.35 -1.70 6.45 -1.70 6.90 0 0.65 1.20 0.75 9 0.65 4.95 -0.05 9.10 0.05 9.25 0.20 0.15 0.10 -0.45 2.35 -1.25 4.95 -0.85 2.60 -1.85 6.05 -2.25 7.70 -0.40 1.65 -1.30 4.80 -2.05 7 -0.75 2.20 -2.05 6.70 -2.95 10 -0.85 3.30 -1.75 6.40 -1.95 6.90 -0.70 1.50 0.40 0.95 6.50 -3.30z"/>
  <path d="M227.25 300.90 c0.20 -0.90 1.15 -4.10 2.10 -7.15 0.90 -3 2.25 -7.50 3 -10 0.70 -2.45 1.65 -5.70 2.10 -7.15 l0.80 -2.65 16.60 -0.10 16.60 -0.10 -1.10 1.15 c-0.55 0.60 -2.75 2.30 -4.80 3.70 -2.10 1.40 -5.80 3.95 -8.30 5.65 -2.45 1.70 -6.25 4.30 -8.35 5.80 -9 6.30 -10.85 7.60 -14.35 9.95 -2.05 1.40 -3.95 2.50 -4.20 2.50 -0.25 0 -0.25 -0.75 -0.10 -1.60z"/>
  <path d="M276.40 293.85 c-0.05 -1.15 -0.05 -6.80 0.10 -12.60 l0.25 -10.50 1.85 -4.05 c1.05 -2.20 2.65 -6.15 3.60 -8.75 3.20 -8.65 7.15 -18.65 8.25 -21.05 1.05 -2.20 2.05 -2.75 2.05 -1.20 0 0.35 0.75 1.50 1.65 2.60 0.90 1.05 2.70 3.40 4 5.20 1.30 1.80 2.85 3.90 3.50 4.75 0.60 0.80 2.65 3.60 4.55 6.25 1.90 2.60 4.10 5.60 4.90 6.60 0.75 1 1.40 2.05 1.40 2.35 0 0.25 -0.75 1.05 -1.60 1.80 -0.90 0.75 -2.90 2.50 -4.40 3.95 -1.50 1.40 -4.35 4 -6.25 5.75 -1.95 1.75 -5.75 5.25 -8.50 7.80 -2.75 2.55 -6.35 5.75 -8 7.10 -1.65 1.40 -3.55 3.15 -4.25 3.90 -2.30 2.50 -2.90 2.50 -3.10 0.10z"/>
  <path d="M220 270.20 c0 -0.20 24.90 -25.10 31.60 -31.55 1.80 -1.75 2.90 -1.95 21.65 -3.90 4.15 -0.40 9 -1 10.90 -1.35 1.85 -0.30 3.45 -0.45 3.60 -0.30 0.30 0.30 -1.50 5.15 -3.65 9.90 -0.80 1.80 -1.95 4.85 -2.60 6.75 -0.60 1.95 -1.55 4.40 -2.05 5.50 -1.20 2.60 -3.95 9.85 -3.95 10.35 0 0.25 -0.45 1.40 -1.05 2.65 l-1.05 2.25 -26.70 0 c-14.70 0 -26.70 -0.15 -26.70 -0.30z"/>
  <path d="M218.50 265.40 c0 -0.35 0.60 -2.45 1.25 -4.65 0.70 -2.20 1.95 -7.35 2.80 -11.50 1 -4.85 1.80 -7.70 2.35 -8.10 0.45 -0.35 1.70 -0.65 2.80 -0.65 1.90 0 14.60 -1.70 17.20 -2.25 1.95 -0.45 1.25 1.05 -1.75 3.85 -1.55 1.45 -7.60 7.45 -13.50 13.30 -5.85 5.80 -10.80 10.60 -10.90 10.60 -0.15 0 -0.25 -0.30 -0.25 -0.60z"/>
  <path d="M314.70 259.80 c-0.80 -0.95 -2.50 -3.15 -3.75 -4.90 -4.90 -6.70 -14.45 -19.70 -15.50 -21.05 -0.60 -0.75 -0.90 -1.55 -0.75 -1.70 0.35 -0.40 7.25 -1.10 25.10 -2.65 l12.05 -1.05 4.45 1.45 c2.45 0.80 5.90 2.10 7.70 2.85 3.10 1.30 7.55 2.95 22.40 8.15 3.60 1.30 6.60 2.50 6.60 2.70 0 0.20 -1.65 0.85 -3.60 1.40 -2 0.60 -7.15 2.15 -11.40 3.50 -18.05 5.70 -25.40 8 -27.50 8.50 -1.25 0.35 -4.90 1.45 -8.10 2.55 -3.25 1.05 -6 1.95 -6.10 1.95 -0.10 0 -0.85 -0.75 -1.60 -1.70z"/>
  <path d="M444 247.15 c-1.25 -0.70 -3.95 -2.35 -6 -3.65 -2.05 -1.30 -5.75 -3.60 -8.25 -5.10 -2.45 -1.50 -5.60 -3.45 -7 -4.30 -1.35 -0.85 -4.20 -2.55 -6.25 -3.75 -2.05 -1.20 -6.10 -3.65 -9 -5.45 -2.90 -1.80 -6.50 -4 -8 -4.90 -1.50 -0.90 -4.25 -2.60 -6.05 -3.80 -1.80 -1.15 -4.20 -2.55 -5.35 -3.15 -2.35 -1.20 -2.50 -1.60 -1.20 -3.45 0.50 -0.75 1.30 -2.30 1.85 -3.50 0.50 -1.20 1.15 -2.05 1.45 -1.95 2.65 0.85 15 4.60 18.80 5.60 2.60 0.70 5 1.55 5.35 1.85 0.35 0.30 1.15 2.15 1.70 4.10 2.05 7.05 3.05 9.85 3.45 9.70 0.45 -0.15 7.55 -8.35 8.75 -10.05 0.55 -0.75 1.05 -0.85 3.05 -0.60 4.20 0.55 4.05 0.45 5.65 5.65 0.80 2.65 1.75 5.80 2.05 7 0.30 1.15 0.75 2.10 0.95 2.10 0.25 0 1.35 -1.20 2.45 -2.60 1.15 -1.45 3.25 -3.95 4.70 -5.55 l2.65 -2.90 2.60 0.30 2.55 0.35 1.35 3.85 c0.75 2.10 1.70 4.95 2.10 6.30 0.40 1.40 0.85 2.80 0.95 3.20 0.20 0.70 3.25 -2.20 5.85 -5.55 0.90 -1.15 0.90 -1.10 0.65 2.10 -0.55 8.15 -1.50 15.80 -1.90 16.05 -0.25 0.15 -2.10 0.60 -4.05 0.95 -2 0.30 -5.40 1.05 -7.55 1.55 -4.95 1.20 -5.50 1.15 -8.30 -0.40z"/>
  <path d="M427.50 246.95 c-2.60 -0.25 -7.20 -0.65 -10.25 -0.95 -3 -0.30 -8.95 -0.90 -13.20 -1.25 -7.05 -0.65 -10 -1.45 -8.15 -2.10 0.70 -0.25 2.80 -1.65 11.30 -7.55 2.50 -1.70 4.65 -3.10 4.85 -3.10 0.20 0 3.15 1.70 6.55 3.80 10.15 6.25 15.55 9.50 17.65 10.60 l2 1.05 -3 -0.05 c-1.65 0 -5.15 -0.25 -7.75 -0.45z"/>
  <path d="M384.25 242.65 c-3.75 -0.50 -5 -1.20 -7.55 -4.25 l-2.60 -3 2.90 -5.85 c1.55 -3.20 3.85 -7.75 5 -10.15 1.20 -2.45 2.30 -4.40 2.45 -4.40 0.15 0 1.30 0.70 2.55 1.50 1.25 0.85 4.95 3.15 8.25 5.10 8 4.70 12.75 7.80 12.75 8.30 0 0.20 -0.55 0.70 -1.20 1.10 -0.65 0.40 -3.95 2.65 -7.30 5 -10.60 7.45 -10.35 7.30 -15.25 6.65z"/>
  <path d="M190.50 240.70 c0 -0.25 0.60 -1.45 1.30 -2.70 0.75 -1.25 2.50 -4.50 3.95 -7.25 3.65 -6.95 4.45 -8.25 4.95 -8.25 0.70 0 3.40 2.15 9.30 7.45 2.95 2.65 6.10 5.40 7.05 6.10 0.95 0.75 1.55 1.50 1.35 1.70 -1 1.05 -27.90 3.90 -27.90 2.95z"/>
  <path d="M368.25 237.95 c-3.45 -1.50 -6 -2.45 -20 -7.35 -12.15 -4.25 -12.25 -4.30 -8.75 -5.60 0.95 -0.35 4.35 -1.80 7.50 -3.30 7.85 -3.60 8.10 -3.65 9.55 -1.60 0.65 0.90 2.35 3 3.80 4.65 8.25 9.35 12.15 14 12.15 14.35 0 0.60 -0.50 0.50 -4.25 -1.15z"/>
  <path d="M221.60 235.40 c-2.65 -2.15 -12.55 -10.80 -16.30 -14.25 l-2.90 -2.70 2.50 -4.85 c5.05 -9.80 10.65 -20.35 11 -20.65 0.45 -0.40 10.90 0.25 20.35 1.25 16.70 1.80 23.70 2.40 39.75 3.35 5.35 0.30 9.95 0.75 10.15 0.95 0.25 0.20 -5.60 6.30 -12.95 13.55 -7.35 7.25 -15.35 15.25 -17.75 17.75 -3.55 3.60 -4.75 4.55 -5.90 4.60 -2.30 0.05 -17 1.60 -20.30 2.10 -4.65 0.75 -5.45 0.65 -7.65 -1.10z"/>
  <path d="M272.25 218 c8.25 -8.25 15.40 -15.25 15.90 -15.55 0.80 -0.45 0.85 0.30 0.85 13.20 l0 13.65 -8.60 0.90 c-4.75 0.50 -10.45 1.20 -12.65 1.55 -2.20 0.35 -5.45 0.80 -7.25 1 l-3.25 0.35 15 -15.10z"/>
  <path d="M365.75 225.40 c-2.75 -3.35 -8.10 -9.30 -11.90 -13.25 l-6.90 -7.10 1.40 -0.85 c0.75 -0.45 2.85 -1.80 4.65 -2.95 6.55 -4.25 7.50 -4.75 9 -4.75 3.50 0 23.05 5.85 23.45 7.05 0.30 0.95 -13.10 27.90 -13.95 27.90 -0.40 0 -3 -2.70 -5.75 -6.05z"/>
  <path d="M292.85 227.75 c-0.20 -0.45 -0.35 -7.30 -0.35 -15.20 l0 -14.35 3.65 -2.55 c1.95 -1.45 4.85 -3.45 6.40 -4.50 1.55 -1.05 6.35 -4.35 10.65 -7.40 9.35 -6.55 10.45 -7.25 10.90 -7.25 0.20 0 0.50 0.85 0.65 1.90 0.20 1 1.10 4.35 2 7.35 0.90 3.05 2.25 7.85 2.95 10.75 1.55 6.15 2.10 8.30 3.35 12 1.50 4.60 3.50 13.15 3.25 13.85 -0.45 1.15 -4 2.20 -9.30 2.70 -2.90 0.25 -9.95 1.05 -15.75 1.75 -15.25 1.90 -18 2 -18.40 0.95z"/>
  <path d="M460.65 225.40 c-0.75 -0.90 -1.90 -4.85 -1.50 -5.20 0.15 -0.15 1.50 -0.15 3.05 0.05 3.45 0.45 3.60 1.25 0.90 3.90 -1.55 1.50 -2.05 1.75 -2.45 1.25z"/>
  <path d="M440.30 220.35 c-1.45 -3.50 -1.45 -3.85 -0.20 -3.85 1.95 0 4.90 1 4.90 1.70 0 0.60 -3.05 3.80 -3.65 3.80 -0.20 0 -0.65 -0.75 -1.05 -1.65z"/>
  <path d="M340 220.35 c0 -0.30 -3.90 -13.15 -4.25 -14 -0.35 -0.85 -0.20 -0.90 2.05 -0.60 4.90 0.70 6 1.20 8.55 3.90 1.40 1.45 3.10 3.05 3.85 3.50 1.85 1.20 1.65 2.10 -0.80 3.55 -2.55 1.45 -9.40 4.15 -9.40 3.65z"/>
  <path d="M154.80 217.45 c0.50 -0.55 1.70 -1.45 2.65 -2.05 1 -0.60 4.30 -2.70 7.30 -4.65 12.60 -8.25 19.30 -12.60 24.25 -15.90 l5.25 -3.45 7.50 0.35 c11 0.45 10.85 0.40 8.20 4.85 -1.60 2.65 -6 10.95 -8.30 15.65 -0.65 1.40 -1.55 3.05 -1.90 3.75 l-0.70 1.25 -12.90 0.35 c-7.10 0.15 -17.25 0.45 -22.60 0.60 -9.65 0.25 -9.70 0.25 -8.75 -0.75z"/>
  <path d="M420.30 216.95 c-1.10 -2.75 -1.35 -3.85 -0.95 -4.10 0.35 -0.25 4.45 0.60 5.05 0.95 0.10 0.10 -0.60 1.20 -1.60 2.50 l-1.80 2.35 -0.70 -1.70z"/>
  <path d="M460.85 216.75 c-1.35 -0.35 -2.85 -1.05 -3.40 -1.55 -1.05 -0.95 -5.95 -10 -5.95 -11 0 -0.30 0.55 -1.40 1.25 -2.40 0.70 -1 1.25 -2.15 1.25 -2.50 0 -0.35 -0.90 -1.30 -1.95 -2.10 -4.60 -3.45 -19.15 -16.30 -19.45 -17.20 -0.10 -0.20 2.60 -1.30 6 -2.40 5.70 -1.85 6.20 -1.95 6.95 -1.15 0.40 0.45 2.65 4.75 4.90 9.55 5.35 11.20 5.90 12.35 6.80 13.95 1.10 2 8.25 16.95 8.25 17.25 0 0.45 -2.05 0.25 -4.65 -0.45z"/>
  <path d="M443.25 213.50 c-4.40 -0.80 -10.15 -1.90 -12.75 -2.50 -2.60 -0.60 -6.60 -1.35 -8.90 -1.75 -2.30 -0.35 -4.35 -0.80 -4.55 -1.05 -0.20 -0.25 -1.70 -2.70 -3.30 -5.45 -1.60 -2.75 -4.20 -7 -5.75 -9.50 -1.55 -2.45 -3.30 -5.45 -3.90 -6.60 l-1.05 -2.10 1.35 -0.95 c2.50 -1.70 4.30 -2 13.95 -2.35 l9.55 -0.30 1.90 1.65 c1.05 0.90 2.25 2 2.70 2.40 2.55 2.35 8.95 8.05 10.15 9 0.75 0.60 1.25 1.30 1.05 1.55 -0.15 0.25 -1.40 1.05 -2.80 1.75 l-2.55 1.30 1.45 1.20 c0.80 0.70 2.60 2 3.95 2.90 3.05 2.05 4.20 3.30 6 6.55 0.75 1.40 1.70 2.95 2.05 3.50 0.85 1.20 0.90 2.25 0.10 2.20 -0.35 0 -4.25 -0.70 -8.65 -1.45z"/>
  <path d="M407.75 205.70 c-1.90 -0.65 -5.30 -1.65 -7.50 -2.25 -2.20 -0.55 -6.70 -1.90 -10 -2.95 -3.30 -1.05 -7.90 -2.40 -10.25 -3 -3.80 -0.90 -12.70 -4 -12.35 -4.30 0.05 -0.05 2.35 -0.90 5.10 -1.85 2.75 -1 6.35 -2.30 8 -3 1.65 -0.65 5.25 -2 8 -3.05 l5.05 -1.85 2.80 1.25 c1.75 0.75 3.20 1.80 3.70 2.65 0.45 0.75 1.55 2.55 2.45 3.90 3.50 5.45 8.80 14.80 8.65 15.25 -0.10 0.20 -1.70 -0.10 -3.65 -0.80z"/>
  <path d="M338 202.55 l-2.70 -0.30 -1.10 -3.25 c-2.05 -6.25 -2.50 -5.25 4.95 -11.05 3.60 -2.85 7.05 -5.60 7.55 -6.05 1.40 -1.25 2.05 -1.10 3.40 0.75 0.60 0.85 2.65 3.50 4.50 5.80 1.85 2.30 3.40 4.40 3.40 4.65 0 0.70 -2.05 2.25 -6 4.60 -1.80 1.05 -4.10 2.60 -5.15 3.45 -2.10 1.60 -4.20 1.95 -8.85 1.40z"/>
  <path d="M446.80 200.45 c-1.45 -1.15 -1.70 -2.20 -0.60 -2.60 1 -0.40 3.35 1.90 3 2.85 -0.40 1.05 -0.80 1 -2.40 -0.25z"/>
  <path d="M281.75 194.45 c-6.45 -0.65 -5.95 -0.20 -6.90 -6.05 -0.45 -2.85 -1.30 -7.75 -1.85 -10.90 -0.60 -3.15 -1.50 -9.30 -2.05 -13.70 -0.50 -4.35 -1.20 -8.85 -1.45 -10 -0.25 -1.10 -0.50 -2.70 -0.50 -3.45 l0 -1.40 4.40 2.25 c4.45 2.30 19.40 9.30 19.85 9.30 0.15 0 2.60 1.10 5.40 2.45 5.75 2.75 15.75 7.35 19.75 9.10 1.45 0.60 2.55 1.35 2.45 1.65 -0.10 0.25 -2.85 2.35 -6.15 4.60 -3.25 2.30 -8.60 6 -11.85 8.30 -12.85 8.95 -11.85 8.40 -14.60 8.35 -1.35 -0.05 -4.30 -0.25 -6.50 -0.50z"/>
  <path d="M259.50 192.75 c-5.35 -0.35 -15.80 -1.15 -23.25 -1.75 -7.40 -0.60 -14.05 -1.15 -14.75 -1.20 -0.70 0 -1.35 -0.25 -1.45 -0.50 -0.10 -0.25 2.50 -2.65 5.75 -5.40 3.25 -2.75 8.40 -7.15 11.45 -9.85 22.90 -20.40 27.25 -24.10 27.85 -23.75 0.20 0.15 0.40 1 0.40 1.85 0 1.55 1.30 9.85 3.45 21.85 1.10 6.15 2.55 16.50 2.55 18.40 0 0.85 -0.25 1.10 -1.10 1.05 -0.65 -0.05 -5.55 -0.40 -10.90 -0.70z"/>
  <path d="M358.95 188.15 c-1.50 -1.90 -3.90 -4.80 -5.30 -6.55 -1.45 -1.70 -2.65 -3.55 -2.65 -4.15 0 -0.55 0.40 -1.95 0.90 -3.10 0.50 -1.15 1.70 -3.85 2.65 -6.05 0.95 -2.15 2 -4 2.35 -4.15 0.80 -0.35 8.25 2 12.35 3.80 1.65 0.75 5.30 2.10 8.15 3 2.80 0.90 5.85 2.15 6.70 2.75 1.65 1.10 5.90 6 5.90 6.80 0 0.25 -0.50 0.60 -1.10 0.75 -0.65 0.20 -3.50 1.35 -6.40 2.60 -2.90 1.25 -6.95 2.80 -9 3.50 -2.05 0.65 -4.40 1.55 -5.25 1.90 -2.85 1.30 -5.35 2.25 -5.95 2.25 -0.35 0 -1.85 -1.50 -3.35 -3.35z"/>
  <path d="M205.75 188.25 c-3.55 -0.40 -11.45 -0.95 -17.50 -1.25 -6.05 -0.30 -11.20 -0.75 -11.45 -1 -0.50 -0.50 4.05 -2.90 9.05 -4.65 2 -0.75 4.70 -1.85 6 -2.50 1.30 -0.70 4 -1.80 5.90 -2.50 1.95 -0.65 5.10 -1.90 7 -2.75 4.75 -2.05 16.20 -6.85 20.50 -8.60 7.55 -3 12.70 -5.15 17.25 -7.10 2.60 -1.15 6.80 -2.80 9.25 -3.70 4.45 -1.65 4.50 -1.65 3 -0.35 -3.25 2.75 -15.50 13.45 -16.45 14.40 -0.60 0.55 -2.40 2.10 -4.05 3.50 -1.65 1.35 -6.80 5.80 -11.40 9.85 -5.70 5 -8.80 7.40 -9.50 7.35 -0.60 -0.05 -4 -0.35 -7.60 -0.70z"/>
  <path d="M330.85 187.65 c-0.10 -0.80 -0.95 -4.25 -1.85 -7.70 -0.90 -3.45 -1.50 -6.60 -1.30 -7 0.15 -0.40 1.25 -1.95 2.45 -3.50 1.15 -1.55 4.45 -6 7.30 -9.90 l5.15 -7.05 4.85 0 4.85 0 0.65 4.25 0.65 4.20 -2 5.15 c-3.40 8.70 -4.50 10.75 -7 12.90 -3.50 3 -12.65 10 -13.10 10 -0.20 0 -0.50 -0.60 -0.65 -1.35z"/>
  <path d="M397.25 181.20 c-2.10 -0.75 -4.75 -3 -4.75 -4 0 -0.65 4.75 0.85 7.90 2.50 3.55 1.85 1 3 -3.15 1.50z"/>
  <path d="M404.15 177 c-3.35 -0.90 -7.10 -2.25 -23.15 -8.55 -3.45 -1.30 -8.15 -3.10 -10.50 -3.90 -10.55 -3.65 -13 -4.75 -13.30 -5.95 -0.50 -1.80 -2.10 -11.35 -1.95 -11.50 0.25 -0.25 5.65 2.15 14.75 6.55 4.80 2.30 10.45 4.95 12.50 5.85 2.05 0.90 5.45 2.50 7.55 3.55 2.05 1.10 3.95 1.95 4.15 1.95 0.20 0 3.55 1.55 7.45 3.40 3.90 1.90 9.75 4.65 13 6.15 l5.95 2.70 -4.20 0.35 c-6.60 0.50 -8.40 0.40 -12.25 -0.60z"/>
  <path d="M317.75 168 c-4.40 -2.15 -5.95 -3.15 -5.85 -3.75 0.15 -0.85 6.25 -10.20 9.15 -14.15 1.40 -1.85 1.85 -2.15 2.90 -1.90 0.70 0.20 3.10 0.65 5.30 1.05 5.50 1.05 9.35 2.30 9.05 3 -0.50 1.40 -13.75 18.75 -14.25 18.70 -0.15 0 -3 -1.35 -6.30 -2.95z"/>
  <path d="M300.55 159.95 c-3.65 -1.65 -7.10 -3.30 -7.65 -3.65 -0.95 -0.70 -0.95 -0.75 0.65 -1.60 0.95 -0.45 2.95 -1.65 4.45 -2.65 1.50 -1 4.85 -3.05 7.40 -4.50 4.35 -2.50 4.80 -2.65 7 -2.30 4.55 0.70 7.35 2.45 5.55 3.50 -0.30 0.20 -2.20 2.90 -4.25 6 -2.05 3.10 -4.05 5.95 -4.45 6.25 -0.40 0.35 -0.75 0.95 -0.75 1.30 0 1.05 -0.75 0.85 -7.95 -2.35z"/>
  <path d="M283.65 152.05 c-2.15 -1 -5.75 -2.60 -8 -3.55 -2.30 -0.90 -4.15 -1.85 -4.15 -2.05 0 -0.45 2.65 -1.45 9.45 -3.50 2.90 -0.85 5.75 -1.90 6.40 -2.30 1.35 -0.90 1.65 -0.85 10.85 1.50 l6.45 1.70 -2.70 1.60 c-1.50 0.90 -3.50 2.10 -4.45 2.65 -0.95 0.55 -3.20 1.95 -5 3.10 -1.80 1.20 -3.65 2.25 -4.10 2.45 -0.45 0.15 -2.45 -0.50 -4.75 -1.60z"/>
  <path d="M340.75 148.65 c-1.45 -0.20 -6.65 -1.55 -11.25 -2.95 -1.25 -0.35 -3.25 -0.85 -4.50 -1 -1.75 -0.30 -2.80 -0.90 -4.75 -2.75 -1.35 -1.30 -2.35 -2.50 -2.15 -2.70 0.30 -0.30 5.05 0 19.10 1.25 4.75 0.45 6.70 0.85 9.65 2.10 3.90 1.65 4.80 2.60 4.55 4.80 l-0.15 1.35 -4.50 0.05 c-2.45 0.05 -5.15 -0.05 -6 -0.15z"/>
  <path d="M259.75 141.20 c-12.25 -5.65 -11.60 -5.30 -10.50 -5.70 0.55 -0.20 3.60 -0.75 6.75 -1.20 6.35 -0.90 8 -0.75 15.25 1.40 2.20 0.70 4.90 1.40 6 1.60 1.10 0.20 2.55 0.55 3.25 0.80 1.15 0.45 1.05 0.55 -1.75 1.75 -4.30 1.85 -10.85 4.10 -12 4.10 -0.55 0 -3.70 -1.20 -7 -2.75z"/>
  <path d="M327.75 136.65 c-2.10 -0.10 -9.65 -0.90 -13.60 -1.40 -0.65 -0.10 -2.05 -0.80 -3.15 -1.60 -2.10 -1.60 -7 -6.05 -7 -6.40 0 -0.45 4.80 -0.25 9.30 0.45 4 0.60 5.55 1.15 12.40 4.55 4.30 2.10 7.95 4.05 8.10 4.30 0.25 0.45 -0.70 0.45 -6.05 0.10z"/>
  <path d="M241.35 132.65 c-0.45 -0.15 -2.55 -1.10 -4.65 -2.20 -2.10 -1.05 -4 -1.95 -4.20 -1.95 -0.70 0 -7.10 -3.05 -6.85 -3.30 0.10 -0.15 1.25 0.10 2.55 0.55 1.30 0.45 4.10 1.10 6.20 1.50 5.15 0.95 12.75 2.60 15.30 3.35 l2.05 0.55 -2.50 0.60 c-3.25 0.75 -6.80 1.15 -7.90 0.90z"/>
  <path d="M299 122.65 c-0.40 -0.15 -2.30 -1.65 -4.25 -3.30 -4.15 -3.60 -5.15 -4.55 -4.50 -4.25 0.30 0.10 1.05 0.45 1.75 0.75 0.70 0.25 4.05 1.90 7.50 3.55 3.45 1.65 6.60 3.15 7 3.30 0.40 0.10 -0.95 0.20 -3 0.20 -2.05 0 -4.10 -0.10 -4.50 -0.25z"/>
 </g>
</svg>